<svg fill="none" xmlns="http://www.w3.org/2000/svg" viewBox="0 0 50 11"><g clip-path="url(#a)"><path d="M18.37.38h1.89l3.21 5.81L26.7.38h1.85v9.55H27V2.61l-2.82 5.07h-1.45L19.9 2.61v7.32h-1.54V.38ZM33.51 10.1c-.71 0-1.34-.15-1.88-.47a3.32 3.32 0 0 1-1.27-1.31c-.3-.56-.45-1.2-.45-1.93s.15-1.38.44-1.94a3.31 3.31 0 0 1 3.05-1.8c.68 0 1.26.15 1.75.48.49.32.86.77 1.13 1.34.26.58.4 1.26.4 2.04v.42h-5.24c.1.58.33 1.04.7 1.38.38.33.86.5 1.43.5.46 0 .85-.07 1.19-.2.33-.14.64-.35.93-.63l.82 1a4.27 4.27 0 0 1-3 1.13Zm1.13-5.66a1.7 1.7 0 0 0-1.27-.5c-.5 0-.94.17-1.28.5-.34.34-.56.8-.65 1.37h3.75a2.12 2.12 0 0 0-.55-1.37ZM38.55 4.08h-1.42V2.82h1.42V.72h1.48v2.1h2.16v1.26h-2.16v3.2c0 .53.1.91.28 1.14.18.23.49.34.93.34a4.4 4.4 0 0 0 .95-.09v1.25a4.2 4.2 0 0 1-1.23.17c-1.61 0-2.41-.88-2.41-2.63V4.08ZM49.95 9.94h-1.47v-1c-.25.37-.58.66-.98.86-.4.2-.86.3-1.37.3-.63 0-1.18-.15-1.67-.48a3.3 3.3 0 0 1-1.14-1.32 4.3 4.3 0 0 1-.42-1.93c0-.73.14-1.37.42-1.93a3.12 3.12 0 0 1 2.89-1.8c.49 0 .93.1 1.31.29.38.18.71.46.96.8v-.91h1.47v7.12Zm-1.5-4.63A2.03 2.03 0 0 0 46.52 4c-.64 0-1.14.21-1.52.64-.38.43-.57 1-.57 1.73s.19 1.31.55 1.74c.36.43.86.64 1.48.64.46 0 .87-.11 1.23-.35a2 2 0 0 0 .78-.96V5.31Z" fill="#1C2B33"/><path d="M4.4.05H4.4L4.37 1.7h.01c1.08 0 1.92.85 3.75 3.92l.1.19.01.01L9.26 4.3v-.01a30.63 30.63 0 0 0-1.44-2.1C6.62.64 5.61.05 4.4.05Z" fill="url(#b)"/><path d="M4.39.05c-1.22.01-2.29.8-3.06 2h-.01l1.42.78v-.01C3.2 2.14 3.77 1.7 4.38 1.7h.01L4.4.05H4.4Z" fill="url(#c)"/><path d="M1.33 2.05h-.01a8.13 8.13 0 0 0-1.1 2.83l1.6.38v-.01a6.69 6.69 0 0 1 .93-2.43l-1.42-.77Z" fill="url(#d)"/><path d="m1.82 5.25-1.6-.38v.01a9.3 9.3 0 0 0-.17 1.77l1.64.15V6.68a7.89 7.89 0 0 1 .13-1.43Z" fill="url(#e)"/><path d="M1.74 7.3a3.42 3.42 0 0 1-.05-.5v-.02L.05 6.63v.02a5.57 5.57 0 0 0 .1 1.04l1.6-.37V7.3Z" fill="url(#f)"/><path d="M2.11 8.15c-.17-.19-.3-.47-.37-.83v-.01l-1.6.36v.02a3.35 3.35 0 0 0 .71 1.57l1.27-1.1Z" fill="url(#g)"/><path d="M6.85 3.6 5.3 6.02C4.02 8.02 3.58 8.47 2.86 8.47a.98.98 0 0 1-.75-.32L.84 9.25l.01.01c.47.55 1.13.85 1.95.85 1.24 0 2.13-.58 3.7-3.35l1.12-1.97c-.28-.45-.53-.84-.77-1.18Z" fill="#0082FB"/><path d="M8.57 1.28h-.01c-.26.28-.5.58-.74.9.24.3.49.64.75 1.02.3-.47.58-.84.86-1.13v-.01l-.86-.78Z" fill="url(#h)"/><path d="M13.24 1.13A3.3 3.3 0 0 0 10.91.05c-.9 0-1.66.5-2.34 1.23h-.01l.87.79v-.02c.46-.46.9-.7 1.38-.7.52 0 1 .25 1.43.68l1.01-.89Z" fill="#0082FB"/><path d="M15.18 6.42c-.04-2.18-.8-4.13-1.93-5.28l-1.01.89c.86.88 1.44 2.5 1.5 4.39v.01h1.44v-.01Z" fill="url(#i)"/><path d="M15.18 6.43v-.01h-1.44v.28c0 .51-.08.93-.23 1.22v.02l1.07 1.12v-.01a4.52 4.52 0 0 0 .6-2.62Z" fill="url(#j)"/><path d="M13.5 7.92v.02a.95.95 0 0 1-.58.49l.5 1.55a2.2 2.2 0 0 0 1.16-.92v-.02l-1.07-1.12Z" fill="url(#k)"/><path d="M12.61 8.47c-.16 0-.3-.02-.45-.09l-.5 1.59a2.8 2.8 0 0 0 1.77 0l-.5-1.55c-.1.04-.2.05-.32.05Z" fill="url(#l)"/><path d="M11.6 7.93v-.01l-1.16 1.2v.01c.41.43.8.7 1.23.84l.5-1.58a1.62 1.62 0 0 1-.56-.46Z" fill="url(#m)"/><path d="M11.6 7.92c-.35-.4-.78-1.08-1.46-2.16l-.88-1.47v-.01L8.24 5.8v.01l.63 1.05c.6 1.01 1.1 1.74 1.57 2.25v.01l1.17-1.2-.01-.01Z" fill="url(#n)"/></g><defs><linearGradient id="b" x1="8.59" y1="5.2" x2="5.2" y2=".76" gradientUnits="userSpaceOnUse"><stop offset="0" stop-color="#0867DF"/><stop offset=".45" stop-color="#0668E1"/><stop offset=".86" stop-color="#0064E0"/></linearGradient><linearGradient id="c" x1="1.99" y1="2.32" x2="4.31" y2=".56" gradientUnits="userSpaceOnUse"><stop offset=".13" stop-color="#0064DF"/><stop offset="1" stop-color="#0064E0"/></linearGradient><linearGradient id="d" x1="1" y1="4.91" x2="1.93" y2="2.57" gradientUnits="userSpaceOnUse"><stop offset=".01" stop-color="#0072EC"/><stop offset=".69" stop-color="#0064DF"/></linearGradient><linearGradient id="e" x1=".88" y1="6.61" x2=".98" y2="5.17" gradientUnits="userSpaceOnUse"><stop offset=".07" stop-color="#007CF6"/><stop offset=".99" stop-color="#0072EC"/></linearGradient><linearGradient id="f" x1=".94" y1="7.38" x2=".86" y2="6.81" gradientUnits="userSpaceOnUse"><stop offset=".07" stop-color="#007FF9"/><stop offset="1" stop-color="#007CF6"/></linearGradient><linearGradient id="g" x1=".89" y1="7.54" x2="1.37" y2="8.56" gradientUnits="userSpaceOnUse"><stop offset=".07" stop-color="#007FF9"/><stop offset="1" stop-color="#0082FB"/></linearGradient><linearGradient id="h" x1="8.28" y1="2.6" x2="8.91" y2="1.72" gradientUnits="userSpaceOnUse"><stop offset=".28" stop-color="#007FF8"/><stop offset=".91" stop-color="#0082FB"/></linearGradient><linearGradient id="i" x1="13.11" y1="1.46" x2="14.44" y2="6.35" gradientUnits="userSpaceOnUse"><stop stop-color="#0082FB"/><stop offset="1" stop-color="#0081FA"/></linearGradient><linearGradient id="j" x1="14.76" y1="6.54" x2="13.92" y2="8.24" gradientUnits="userSpaceOnUse"><stop offset=".06" stop-color="#0081FA"/><stop offset="1" stop-color="#0080F9"/></linearGradient><linearGradient id="k" x1="13.25" y1="9.14" x2="14.04" y2="8.6" gradientUnits="userSpaceOnUse"><stop stop-color="#027AF3"/><stop offset="1" stop-color="#0080F9"/></linearGradient><linearGradient id="l" x1="12.02" y1="9.25" x2="13.11" y2="9.25" gradientUnits="userSpaceOnUse"><stop stop-color="#0377EF"/><stop offset="1" stop-color="#0279F1"/></linearGradient><linearGradient id="m" x1="11.07" y1="8.64" x2="11.85" y2="9.11" gradientUnits="userSpaceOnUse"><stop offset="0" stop-color="#0471E9"/><stop offset="1" stop-color="#0377EF"/></linearGradient><linearGradient id="n" x1="8.67" y1="5.23" x2="11.19" y2="8.4" gradientUnits="userSpaceOnUse"><stop offset=".28" stop-color="#0867DF"/><stop offset="1" stop-color="#0471E9"/></linearGradient><clipPath id="a"><path fill="#fff" d="M0 0h50v11H0z"/></clipPath></defs></svg>